<?xml version="1.0" standalone="no"?>
<!DOCTYPE svg PUBLIC "-//W3C//DTD SVG 20010904//EN"
 "http://www.w3.org/TR/2001/REC-SVG-20010904/DTD/svg10.dtd">
<svg version="1.0" xmlns="http://www.w3.org/2000/svg"
 width="64.000000pt" height="64.000000pt" viewBox="0 0 64.000000 64.000000"
 preserveAspectRatio="xMidYMid meet">
<metadata>
Created by potrace 1.10, written by Peter Selinger 2001-2011
</metadata>
<g transform="translate(0.000000,64.000000) scale(0.100000,-0.100000)"
fill="#e69138" stroke="none">
<path d="M310 525 c0 -19 5 -35 10 -35 6 0 10 16 10 35 0 19 -4 35 -10 35 -5
0 -10 -16 -10 -35z"/>
<path d="M210 530 c0 -16 23 -60 32 -60 11 0 10 14 -4 45 -11 25 -28 34 -28
15z"/>
<path d="M400 514 c-12 -31 -13 -44 -2 -44 9 0 32 44 32 60 0 20 -21 9 -30
-16z"/>
<path d="M127 482 c-8 -11 40 -58 50 -48 4 3 -5 18 -19 32 -14 14 -28 22 -31
16z"/>
<path d="M480 465 c-32 -34 -16 -46 16 -13 14 14 22 28 16 31 -5 4 -20 -5 -32
-18z"/>
<path d="M244 451 c-48 -22 -80 -59 -96 -112 l-11 -39 -59 0 c-32 0 -58 -4
-58 -10 0 -6 107 -10 300 -10 193 0 300 4 300 10 0 6 -26 10 -58 10 l-59 0
-11 39 c-16 53 -48 90 -96 112 -52 24 -100 24 -152 0z m143 -17 c39 -19 78
-66 88 -106 l7 -28 -162 0 -162 0 7 28 c24 96 133 148 222 106z"/>
<path d="M70 390 c0 -10 41 -30 61 -30 18 0 8 17 -16 28 -32 15 -45 15 -45 2z"/>
<path d="M523 388 c-23 -11 -31 -28 -14 -28 20 0 61 20 61 30 0 13 -18 12 -47
-2z"/>
<path d="M140 250 c0 -6 67 -10 180 -10 113 0 180 4 180 10 0 6 -67 10 -180
10 -113 0 -180 -4 -180 -10z"/>
<path d="M190 210 c0 -6 50 -10 130 -10 80 0 130 4 130 10 0 6 -50 10 -130 10
-80 0 -130 -4 -130 -10z"/>
<path d="M27 183 c-13 -12 -7 -25 8 -19 8 3 15 1 15 -4 0 -15 37 -12 44 3 5
10 7 10 12 0 7 -15 44 -18 44 -3 0 5 7 7 15 4 8 -4 15 -1 15 5 0 18 -31 25
-42 10 -7 -11 -11 -11 -15 -1 -2 6 -13 12 -23 12 -10 0 -20 -6 -23 -12 -4 -10
-7 -10 -18 0 -15 14 -23 15 -32 5z"/>
<path d="M467 183 c-13 -12 -7 -25 8 -19 8 3 15 1 15 -4 0 -15 37 -12 44 3 5
10 7 10 12 0 7 -15 44 -18 44 -3 0 5 7 7 15 4 8 -4 15 -1 15 5 0 18 -31 25
-42 10 -7 -11 -11 -11 -15 -1 -2 6 -13 12 -23 12 -10 0 -21 -6 -24 -12 -5 -10
-7 -10 -12 0 -6 13 -27 16 -37 5z"/>
<path d="M220 170 c0 -6 40 -10 100 -10 60 0 100 4 100 10 0 6 -40 10 -100 10
-60 0 -100 -4 -100 -10z"/>
<path d="M260 130 c0 -6 27 -10 60 -10 33 0 60 4 60 10 0 6 -27 10 -60 10 -33
0 -60 -4 -60 -10z"/>
<path d="M27 113 c-14 -13 -6 -24 13 -18 11 4 20 2 20 -4 0 -15 37 -14 44 2 5
10 7 10 12 0 7 -17 41 -17 48 0 5 10 7 10 12 0 7 -16 44 -17 44 -2 0 6 9 8 21
4 15 -5 20 -3 17 6 -6 19 -39 24 -50 7 -7 -10 -11 -10 -15 0 -6 16 -40 16 -47
0 -5 -10 -7 -10 -12 0 -3 6 -14 12 -24 12 -10 0 -21 -6 -24 -12 -5 -10 -7 -10
-12 0 -6 13 -36 16 -47 5z"/>
<path d="M387 113 c-14 -13 -6 -24 13 -18 11 4 20 2 20 -4 0 -15 37 -14 44 2
5 10 7 10 12 0 7 -17 41 -17 48 0 5 10 7 10 12 0 7 -16 44 -17 44 -2 0 6 9 8
21 4 15 -5 20 -3 17 6 -6 19 -39 24 -50 7 -7 -10 -11 -10 -15 0 -2 6 -13 12
-23 12 -10 0 -21 -6 -24 -12 -5 -10 -7 -10 -12 0 -3 6 -14 12 -24 12 -10 0
-21 -6 -24 -12 -5 -10 -7 -10 -12 0 -6 13 -36 16 -47 5z"/>
</g>
</svg>
