<?xml version="1.0" standalone="no"?>
<!DOCTYPE svg PUBLIC "-//W3C//DTD SVG 20010904//EN"
 "http://www.w3.org/TR/2001/REC-SVG-20010904/DTD/svg10.dtd">
<svg version="1.0" xmlns="http://www.w3.org/2000/svg"
 width="450.000000pt" height="338.000000pt" viewBox="0 0 450.000000 338.000000"
 preserveAspectRatio="xMidYMid meet">
<metadata>
Created by potrace 1.10, written by Peter Selinger 2001-2011
</metadata>
<g transform="translate(0.000000,338.000000) scale(0.100000,-0.100000)"
fill="#e69138" stroke="none">
<path d="M2240 2180 c0 -40 4 -70 10 -70 6 0 10 30 10 70 0 40 -4 70 -10 70
-6 0 -10 -30 -10 -70z"/>
<path d="M2154 2224 c4 -9 11 -37 18 -63 6 -25 15 -50 21 -56 7 -7 8 -5 5 5
-3 8 -11 41 -18 73 -7 31 -17 57 -23 57 -5 0 -6 -7 -3 -16z"/>
<path d="M2320 2183 c-7 -32 -15 -65 -18 -73 -3 -10 -2 -12 5 -5 6 6 15 31 21
56 7 26 14 54 18 63 3 9 2 16 -3 16 -6 0 -16 -26 -23 -57z"/>
<path d="M2070 2196 c0 -10 73 -126 77 -123 6 6 -60 127 -69 127 -5 0 -8 -2
-8 -4z"/>
<path d="M2413 2188 c-21 -28 -64 -110 -60 -114 2 -3 21 23 41 57 20 34 35 63
33 66 -2 2 -9 -2 -14 -9z"/>
<path d="M2211 2160 c0 -14 4 -34 9 -45 8 -18 9 -18 9 5 0 14 -4 34 -9 45 -8
18 -9 18 -9 -5z"/>
<path d="M2274 2146 c-3 -21 -4 -39 -1 -42 3 -4 9 10 13 30 3 21 4 39 1 42 -3
4 -9 -10 -13 -30z"/>
<path d="M2145 2145 c4 -11 10 -28 12 -37 3 -10 9 -18 14 -18 5 0 3 12 -3 28
-14 33 -35 57 -23 27z"/>
<path d="M2340 2135 c-6 -15 -13 -32 -16 -36 -3 -5 -1 -9 3 -9 10 0 35 61 28
68 -2 3 -9 -8 -15 -23z"/>
<path d="M2000 2144 c0 -5 23 -32 50 -59 28 -27 50 -45 50 -39 0 5 -22 32 -50
59 -27 27 -50 45 -50 39z"/>
<path d="M2445 2100 c-27 -27 -47 -52 -44 -55 3 -2 27 18 54 45 27 27 47 52
44 55 -3 2 -27 -18 -54 -45z"/>
<path d="M2080 2120 c1 -16 38 -66 44 -59 2 2 -7 20 -20 39 -13 19 -24 28 -24
20z"/>
<path d="M2392 2095 c-12 -19 -19 -35 -15 -35 12 1 45 49 41 60 -2 5 -13 -6
-26 -25z"/>
<path d="M1940 2073 c0 -9 111 -73 126 -73 10 0 -16 18 -78 54 -27 16 -48 24
-48 19z"/>
<path d="M2020 2075 c0 -9 54 -54 64 -55 5 0 1 9 -10 21 -20 22 -54 44 -54 34z"/>
<path d="M2164 2060 c-83 -42 -124 -145 -90 -231 5 -12 0 -14 -28 -11 -24 3
-47 -4 -78 -22 -56 -33 -95 -33 -138 -1 -20 15 -47 25 -66 25 -36 0 -84 -18
-84 -32 0 -11 2 -10 43 7 40 16 70 10 115 -25 35 -28 72 -25 140 11 64 33 68
33 152 -16 14 -8 36 -15 50 -15 14 0 36 7 50 15 84 49 88 49 152 16 65 -34 91
-38 128 -16 84 49 88 49 152 16 32 -17 71 -31 86 -31 29 0 72 24 72 41 0 6
-10 3 -22 -5 -32 -23 -77 -20 -123 9 -52 32 -102 32 -145 0 -33 -24 -80 -32
-114 -19 -13 5 -13 9 -1 27 35 55 27 148 -18 210 -47 63 -156 85 -233 47z
m128 0 c100 -28 151 -130 117 -229 -9 -24 -15 -30 -28 -25 -44 20 -92 16 -131
-10 -67 -44 -130 -32 -156 29 -39 95 6 196 103 230 47 17 49 17 95 5z"/>
<path d="M2438 2051 c-18 -17 -28 -30 -23 -30 14 0 69 49 62 55 -3 3 -20 -8
-39 -25z"/>
<path d="M2493 2043 c-34 -20 -61 -39 -58 -41 6 -6 125 61 125 70 0 11 2 12
-67 -29z"/>
<path d="M1981 2005 c9 -8 79 -35 79 -30 0 7 -57 35 -71 35 -7 0 -10 -2 -8 -5z"/>
<path d="M2468 1997 c-16 -6 -28 -15 -28 -19 0 -7 67 16 79 27 8 8 -23 3 -51
-8z"/>
<path d="M1916 1981 c5 -4 30 -13 55 -19 26 -7 54 -14 63 -18 9 -3 16 -2 16 3
0 5 -29 17 -64 26 -73 19 -84 21 -70 8z"/>
<path d="M2508 1972 c-32 -9 -58 -19 -58 -23 0 -8 122 21 135 32 13 13 -10 10
-77 -9z"/>
<path d="M1970 1930 c8 -5 29 -9 45 -9 26 0 27 2 10 9 -11 5 -31 9 -45 9 -20
1 -22 -1 -10 -9z"/>
<path d="M2475 1930 c-17 -7 -16 -9 10 -9 17 0 37 4 45 9 12 8 10 10 -10 9
-14 0 -34 -4 -45 -9z"/>
<path d="M1933 1893 c20 -2 54 -2 75 0 20 2 3 4 -38 4 -41 0 -58 -2 -37 -4z"/>
<path d="M2493 1893 c20 -2 54 -2 75 0 20 2 3 4 -38 4 -41 0 -58 -2 -37 -4z"/>
<path d="M1993 1863 c-37 -7 -26 -19 12 -15 19 2 35 8 35 13 0 9 -8 10 -47 2z"/>
<path d="M2460 1862 c0 -5 16 -12 35 -14 19 -2 35 0 35 4 0 4 -6 8 -12 8 -7 0
-23 3 -35 6 -13 4 -23 2 -23 -4z"/>
<path d="M1711 1717 c-14 -6 -27 -18 -29 -26 -4 -11 1 -10 19 2 33 24 77 21
124 -8 52 -32 100 -32 147 0 46 31 82 32 133 0 51 -31 99 -31 150 0 51 32 87
31 133 0 47 -32 95 -32 147 0 51 32 92 32 135 0 20 -15 47 -25 66 -25 36 0 84
18 84 32 0 11 -2 10 -39 -8 -25 -13 -38 -13 -65 -4 -19 6 -40 17 -46 25 -7 8
-28 17 -47 21 -29 5 -48 0 -98 -25 -68 -35 -71 -35 -155 14 -37 22 -63 18
-130 -17 l-60 -31 -62 32 c-71 37 -107 37 -158 0 -40 -30 -86 -28 -134 5 -42
28 -78 33 -115 13z"/>
<path d="M1713 1625 c-18 -8 -33 -19 -33 -25 0 -14 7 -13 35 6 31 20 73 13
116 -18 42 -31 94 -29 144 5 50 34 79 34 128 0 26 -18 53 -28 77 -28 24 0 51
10 77 28 21 15 50 27 63 27 13 0 42 -12 63 -27 52 -36 102 -36 154 0 48 33 78
34 124 3 20 -14 48 -28 61 -31 28 -7 98 18 98 34 0 15 -11 13 -34 -4 -29 -22
-65 -18 -109 12 -52 36 -99 36 -152 0 -50 -34 -79 -34 -128 0 -26 18 -53 28
-77 28 -24 0 -51 -10 -77 -28 -49 -34 -78 -34 -128 0 -53 36 -100 36 -152 0
-49 -34 -78 -34 -125 -2 -48 33 -85 39 -125 20z"/>
<path d="M1562 1434 c-24 -17 -30 -65 -9 -82 6 -5 31 -15 55 -21 31 -9 42 -17
42 -31 0 -26 -34 -34 -70 -17 -25 13 -31 13 -41 1 -9 -11 -4 -17 26 -30 46
-19 90 -11 111 22 15 22 15 26 1 48 -9 13 -33 30 -54 36 -52 17 -61 27 -41 46
14 14 22 15 49 5 41 -14 61 6 26 26 -30 17 -68 16 -95 -3z"/>
<path d="M1752 1370 c4 -97 23 -125 89 -125 62 0 79 27 79 126 0 64 -3 79 -15
79 -12 0 -15 -14 -15 -70 0 -57 -4 -74 -20 -90 -24 -24 -29 -24 -58 -4 -19 13
-22 24 -22 90 0 69 -2 74 -21 74 -20 0 -21 -4 -17 -80z"/>
<path d="M2000 1346 c0 -96 1 -104 18 -99 16 4 18 13 14 63 -2 32 -3 63 0 70
2 6 25 -18 52 -55 26 -36 56 -70 67 -75 18 -10 19 -6 19 95 0 85 -3 105 -15
105 -11 0 -15 -17 -17 -70 l-3 -71 -53 71 c-73 98 -82 95 -82 -34z"/>
<path d="M2250 1351 c0 -90 2 -99 20 -104 17 -4 20 0 20 34 0 32 4 39 19 39
10 0 30 -15 44 -34 14 -18 35 -36 47 -39 26 -7 25 -3 -5 37 -29 38 -31 46 -10
46 19 0 38 46 30 70 -10 32 -33 42 -100 46 l-65 3 0 -98z m125 29 c0 -22 -5
-26 -42 -31 l-43 -5 0 36 0 36 43 -5 c37 -5 42 -9 42 -31z"/>
<path d="M2490 1346 c0 -99 1 -104 20 -99 18 5 20 14 20 104 0 92 -1 99 -20
99 -19 0 -20 -7 -20 -104z"/>
<path d="M2626 1429 c-46 -36 -28 -76 48 -101 48 -16 56 -34 23 -49 -19 -9
-31 -8 -55 5 -19 10 -33 12 -37 6 -10 -16 2 -28 41 -40 46 -15 92 2 101 38 8
35 -7 55 -58 72 -32 11 -44 21 -44 35 0 20 15 23 69 13 29 -5 30 17 1 30 -37
17 -59 15 -89 -9z"/>
<path d="M2820 1346 l0 -101 75 0 c65 0 75 2 75 18 0 14 -10 17 -60 17 -57 0
-60 1 -60 25 0 24 3 25 55 25 42 0 55 3 55 15 0 12 -13 15 -55 15 -52 0 -55 1
-55 25 0 24 3 25 60 25 54 0 60 2 60 20 0 19 -6 20 -75 19 l-75 -1 0 -102z"/>
<path d="M1774 1188 c-4 -6 0 -16 9 -23 22 -16 22 -26 0 -18 -11 4 -14 3 -9
-5 4 -7 13 -12 21 -12 22 0 29 22 12 35 -18 13 -24 30 -7 20 6 -3 10 -1 10 4
0 15 -27 14 -36 -1z"/>
<path d="M1860 1165 c0 -31 3 -35 25 -35 14 0 25 5 25 10 0 6 -7 10 -15 10 -9
0 -15 9 -15 25 0 14 -4 25 -10 25 -5 0 -10 -16 -10 -35z"/>
<path d="M1963 1193 c-22 -8 -15 -51 8 -58 27 -9 42 6 37 36 -3 24 -21 32 -45
22z m37 -28 c0 -8 -9 -15 -20 -15 -11 0 -20 7 -20 15 0 8 9 15 20 15 11 0 20
-7 20 -15z"/>
<path d="M2067 1193 c-11 -10 -8 -51 3 -58 16 -10 50 5 50 21 0 8 -7 14 -15
14 -9 0 -12 -6 -8 -16 4 -12 2 -15 -8 -12 -23 8 -23 38 0 38 12 0 21 5 21 10
0 11 -33 14 -43 3z"/>
<path d="M2172 1175 c-15 -31 -16 -56 -2 -35 8 13 13 13 31 2 20 -13 21 -12
14 5 -4 10 -10 26 -12 36 -7 24 -18 21 -31 -8z"/>
<path d="M2260 1165 c0 -39 15 -48 22 -12 5 27 0 47 -13 47 -5 0 -9 -16 -9
-35z"/>
<path d="M2310 1179 c0 -11 -4 -17 -10 -14 -16 10 -12 -11 5 -25 13 -11 15 -7
15 24 0 20 -2 36 -5 36 -3 0 -5 -9 -5 -21z"/>
<path d="M2390 1165 c0 -19 5 -35 10 -35 6 0 10 7 10 15 0 8 5 15 10 15 6 0
10 -7 10 -15 0 -8 5 -15 10 -15 6 0 10 16 10 35 0 19 -4 35 -10 35 -5 0 -10
-7 -10 -15 0 -8 -4 -15 -10 -15 -5 0 -10 7 -10 15 0 8 -4 15 -10 15 -5 0 -10
-16 -10 -35z"/>
<path d="M2490 1165 c0 -31 3 -35 25 -35 14 0 25 5 25 11 0 6 -7 9 -15 5 -8
-3 -15 -1 -15 4 0 6 8 10 18 11 14 0 14 2 -3 9 -17 7 -17 9 -2 9 27 1 20 21
-8 21 -22 0 -25 -4 -25 -35z"/>
<path d="M2591 1163 c0 -30 2 -34 9 -18 7 18 8 19 15 3 11 -28 21 -21 20 15 0
25 -5 33 -22 35 -21 3 -23 -1 -22 -35z m39 11 c0 -2 -7 -4 -15 -4 -8 0 -15 4
-15 10 0 5 7 7 15 4 8 -4 15 -8 15 -10z"/>
<path d="M2680 1165 c0 -31 3 -35 25 -35 14 0 25 5 25 11 0 6 -7 9 -15 5 -8
-3 -15 -1 -15 4 0 6 8 10 18 11 14 0 14 2 -3 9 -17 7 -17 9 -2 9 27 1 20 21
-8 21 -22 0 -25 -4 -25 -35z"/>
</g>
</svg>
